# xmcd
#
# Track frame offsets:
#	182
#	17815
#	36317
#	47045
#	60440
#	71782
#	87015
#	100477
#	116115
#	128760
#
# Disc length: 1857 seconds
#
# Revision: 2
# Processed by: cddbd v1.5.1PL2 Copyright (c) Steve Scherf et al.
# Submitted via: audiograbber 1.83.01
#
DISCID=88073f0a
DTITLE=Various Artist - The 101 Greatest Country Hits Vol 4: Mellow Country
DYEAR=1994
DGENRE=Country
TTITLE0=Eddie Rabbit and Crystal Gayle - You And I
TTITLE1=Don Williams - I Believe In You
TTITLE2=Jim Reeves - He'll Have To Go
TTITLE3=Patti Page - The Tennessee Waltz
TTITLE4=Wynn Stewart - It's Such A Pretty World Today
TTITLE5=Jessi Colter - I'm Not Lisa
TTITLE6=Billy Swan - I Can Help
TTITLE7=Kris Kristofferson - Why Me
TTITLE8=Bill Anderson - Still
TTITLE9=Floyd Cramer - San Antonio Rose
EXTD=
EXTT0=EDDIE RABBITT and CRYSTAL GAYLE
EXTT1=DON WILLIAMS
EXTT2=JIM REEVES
EXTT3=PATTI PAGE
EXTT4=WYNN STEWART
EXTT5=JESSI COLTER
EXTT6=BILLY SWAN
EXTT7=KRIS KRISTOFFERSON
EXTT8=BILL ANDERSON
EXTT9=FLOYD CRAMER
PLAYORDER=
